Coordinates
version=1
nRows=26
nColumns=24
inDegrees=yes

Units are S.I. units (second, meters, Newtons, ...)
Angles are in degrees.

endheader
time	pelvis_tilt	pelvis_list	pelvis_rotation	pelvis_tx	pelvis_ty	pelvis_tz	hip_flexion_r	hip_adduction_r	hip_rotation_r	knee_angle_r	ankle_angle_r	subtalar_angle_r	mtp_angle_r	hip_flexion_l	hip_adduction_l	hip_rotation_l	knee_angle_l	ankle_angle_l	subtalar_angle_l	mtp_angle_l	lumbar_extension	lumbar_bending	lumbar_rotation
      1.39600000	      1.76409347	      8.19868799	     -4.88293586	      0.24660761	      1.02090459	      0.31597477	     13.36397834	     -8.82459767	      2.68071141	    -62.73991319	      5.48075783	    -14.53116400	      1.18486023	      5.43261259	     13.42714108	      0.15859808	     -9.99742221	     -0.58216220	    -19.65139504	      6.57528805	     -4.56189656	    -10.26598616	      7.02270132
      1.40016667	      1.72764666	      8.06689967	     -4.73395171	      0.25160553	      1.02158174	      0.31588957	     13.83793886	     -8.62024935	      2.64422769	    -62.11463749	      5.72610802	    -14.46345936	      1.13878916	      4.94613584	     13.31846180	      0.35791925	     -9.66266623	     -0.48266741	    -19.56371616	      6.54252170	     -4.56865878	    -10.11210807	      6.90018133
      1.40433333	      1.73814596	      7.95737134	     -4.57765891	      0.25657724	      1.02226430	      0.31577870	     14.25458732	     -8.45724970	      2.58797937	    -61.45836729	      5.95789039	    -14.36674275	      1.02698023	      4.38957733	     13.24483921	      0.64442825	     -9.28222258	     -0.40496589	    -19.59822601	      6.45686220	     -4.64469810	    -10.01015366	      6.49054788
      1.40850000	      1.73573598	      7.83927529	     -4.41395816	      0.26153607	      1.02289972	      0.31568674	     14.66965151	     -8.28293349	      2.52128201	    -60.75614454	      6.19090740	    -14.27748973	      0.92952367	      3.85583917	     13.15177047	      0.90392777	     -8.91672786	     -0.34221100	    -19.59729973	      6.37613216	     -4.70106565	     -9.89116476	      6.19767257
      1.41266667	      1.72768969	      7.72848785	     -4.24477921	      0.26648765	      1.02349459	      0.31559225	     15.07956336	     -8.12034451	      2.44600880	    -60.01687609	      6.41290940	    -14.18976925	      0.84389927	      3.33067947	     13.06229111	      1.15972306	     -8.55139694	     -0.28427789	    -19.58858314	      6.30007977	     -4.75185360	     -9.77713497	      5.89895503
      1.41683333	      1.71209014	      7.61712172	     -4.07134143	      0.27142865	      1.02403389	      0.31550460	     15.48629777	     -7.95835834	      2.36478193	    -59.24119940	      6.61716998	    -14.11097409	      0.76187165	      2.81656067	     12.96746259	      1.42031423	     -8.19013154	     -0.22526756	    -19.58329342	      6.22237322	     -4.79624059	     -9.66495351	      5.58431579
      1.42100000	      1.70165787	      7.51466546	     -3.89670834	      0.27634747	      1.02453737	      0.31541774	     15.87981481	     -7.81085097	      2.27828447	    -58.43577423	      6.81856491	    -14.02982407	      0.67570534	      2.30080417	     12.87903319	      1.68093885	     -7.82921494	     -0.17700967	    -19.57862581	      6.13522996	     -4.85157776	     -9.56613514	      5.25807765
      1.42516667	      1.68418576	      7.40520534	     -3.71341634	      0.28127168	      1.02499852	      0.31532522	     16.26288444	     -7.66092365	      2.17520982	    -57.58783654	      6.99131804	    -13.95723378	      0.60603620	      1.79939655	     12.77765828	      1.92983959	     -7.48378948	     -0.10574742	    -19.55894981	      6.06183161	     -4.89240828	     -9.45133356	      4.96670854
      1.42933333	      1.65775086	      7.31336358	     -3.53182578	      0.28617338	      1.02539588	      0.31525271	     16.65262056	     -7.52991288	      2.07730977	    -56.72024493	      7.17803309	    -13.89900444	      0.51029385	      1.30838792	     12.69080211	      2.18779117	     -7.12734689	     -0.08779253	    -19.55975667	      5.95405239	     -4.93112964	     -9.36641549	      4.61476029
      1.43350000	      1.62969116	      7.20546293	     -3.34554598	      0.29108067	      1.02576267	      0.31515973	     17.02395624	     -7.39092104	      1.95820722	    -55.80497750	      7.30057887	    -13.83471387	      0.45536848	      0.83250058	     12.58300884	      2.42191947	     -6.80630532	      0.02430228	    -19.52512408	      5.89210246	     -4.95472074	     -9.24812898	      4.35849480
      1.43766667	      1.61425278	      7.11450532	     -3.16292457	      0.29596001	      1.02608728	      0.31509246	     17.37833599	     -7.27110672	      1.84441511	    -54.87377270	      7.43459571	    -13.78115320	      0.39795610	      0.34353227	     12.49008307	      2.66560121	     -6.47364423	      0.08961519	    -19.50114796	      5.82470803	     -5.00698889	     -9.16021488	      4.03264711
      1.44183333	      1.56814585	      7.01419706	     -2.97666411	      0.30083748	      1.02634286	      0.31502600	     17.74917891	     -7.14222713	      1.72520613	    -53.90440097	      7.56246786	    -13.72960130	      0.36744776	     -0.09401652	     12.37897330	      2.86910044	     -6.17517873	      0.14567320	    -19.43418208	      5.78839128	     -5.01983097	     -9.05596463	      3.83354843
      1.44600000	      1.55432837	      6.93884368	     -2.79804313	      0.30570907	      1.02658330	      0.31496365	     18.08378372	     -7.04917870	      1.60226460	    -52.92255569	      7.63432987	    -13.71821114	      0.31061650	     -0.58289656	     12.29879579	      3.12969386	     -5.83975666	      0.23349338	    -19.45459476	      5.72171535	     -5.06955053	     -8.98523939	      3.41984383
      1.45016667	      1.48391151	      6.85922392	     -2.61766640	      0.31057373	      1.02669927	      0.31491278	     18.46843077	     -6.94891929	      1.48243240	    -51.91452548	      7.73234972	    -13.67012210	      0.28316503	     -0.97999619	     12.20314843	      3.32008747	     -5.55917025	      0.29334013	    -19.38870487	      5.68925183	     -5.05091086	     -8.90584876	      3.24224512
      1.45433333	      1.47129097	      6.79304785	     -2.44556379	      0.31541045	      1.02685049	      0.31487539	     18.78327721	     -6.86904739	      1.36137986	    -50.88515281	      7.77047787	    -13.68714680	      0.22199199	     -1.45747800	     12.12602424	      3.57861584	     -5.23839954	      0.37065496	    -19.40947396	      5.61698469	     -5.11214732	     -8.85025819	      2.82880624
      1.45850000	      1.39933401	      6.72322898	     -2.26756670	      0.32027693	      1.02687960	      0.31482236	     19.14684635	     -6.79148459	      1.22507709	    -49.82781331	      7.81451708	    -13.65608964	      0.18818790	     -1.84141964	     12.03798385	      3.76606633	     -4.97898948	      0.45530609	    -19.36885649	      5.57793173	     -5.08362532	     -8.77079360	      2.63713805
      1.46266667	      1.33562230	      6.65718246	     -2.11012776	      0.32513711	      1.02687220	      0.31480923	     19.50034901	     -6.71611583	      1.09931536	    -48.75961240	      7.84138047	    -13.64601311	      0.16353396	     -2.24600302	     11.95053589	      3.95171476	     -4.68664292	      0.54798692	    -19.30478366	      5.55194885	     -5.08202487	     -8.70190499	      2.44416574
      1.46683333	      1.31141932	      6.60971144	     -1.94651865	      0.32996222	      1.02687875	      0.31479847	     19.79311903	     -6.66265608	      0.97944789	    -47.65523553	      7.80683295	    -13.71073657	      0.10386350	     -2.67938825	     11.88600046	      4.18606720	     -4.42396754	      0.63704036	    -19.34226747	      5.48473879	     -5.11190079	     -8.67055456	      2.02289820
      1.47100000	      1.24519233	      6.56314103	     -1.79308253	      0.33480891	      1.02677125	      0.31479356	     20.12889882	     -6.61534537	      0.84953836	    -46.54527728	      7.78871025	    -13.71784255	      0.05024799	     -3.06288377	     11.81764916	      4.37937384	     -4.16596850	      0.73329899	    -19.33162857	      5.42323821	     -5.10054979	     -8.62755343	      1.78024841
      1.47516667	      1.17324726	      6.52063210	     -1.65283518	      0.33967045	      1.02661635	      0.31481054	     20.46294681	     -6.57503369	      0.71508194	    -45.41896700	      7.77869242	    -13.68926719	      0.02708560	     -3.43186862	     11.75060298	      4.52370238	     -3.92017148	      0.82641601	    -19.26663600	      5.39929193	     -5.07999740	     -8.58989079	      1.65618656
      1.47933333	      1.12754213	      6.48406476	     -1.51544088	      0.34450985	      1.02646349	      0.31483871	     20.75025590	     -6.53587789	      0.60043865	    -44.25539107	      7.68731326	    -13.77592530	     -0.02503252	     -3.82757638	     11.69183181	      4.72052417	     -3.68063775	      0.94365769	    -19.27584237	      5.34303829	     -5.08442152	     -8.56054349	      1.33331218
      1.48350000	      1.06808908	      6.44901122	     -1.38588362	      0.34936998	      1.02625171	      0.31487467	     21.04319840	     -6.50413176	      0.47189129	    -43.07755355	      7.61596037	    -13.79455725	     -0.07077320	     -4.20353093	     11.63221584	      4.88760893	     -3.44940730	      1.05651585	    -19.25704558	      5.29220447	     -5.07510885	     -8.53021353	      1.12449263
      1.48766667	      0.98672918	      6.42393271	     -1.26344190	      0.35424868	      1.02596802	      0.31491625	     21.35116217	     -6.48710534	      0.33535331	    -41.88506018	      7.55186802	    -13.77206947	     -0.09733345	     -4.54442413	     11.58176613	      5.01577263	     -3.23868712	      1.15609821	    -19.21207293	      5.26448666	     -5.02958816	     -8.50439180	      0.99598264
      1.49183333	      0.91875645	      6.39454330	     -1.14839714	      0.35912755	      1.02566831	      0.31498127	     21.62799899	     -6.46182135	      0.20525888	    -40.66261724	      7.44169874	    -13.80378710	     -0.12734670	     -4.90011424	     11.52588880	      5.16309096	     -3.02940581	      1.28385576	    -19.18276531	      5.23402008	     -5.00229131	     -8.47757426	      0.81535440
      1.49600000	      0.86007946	      6.37895705	     -1.04860571	      0.36399704	      1.02532749	      0.31508277	     21.89109618	     -6.44432307	      0.09457012	    -39.43199169	      7.30482550	    -13.88445671	     -0.17333394	     -5.27058844	     11.48451347	      5.32474635	     -2.80744643	      1.41911556	    -19.17872774	      5.18127687	     -5.00093624	     -8.48097747	      0.55906551
      1.50016667	      0.77067083	      6.37239121	     -0.95191363	      0.36890395	      1.02489593	      0.31516988	     22.18140576	     -6.44987406	     -0.05432812	    -38.19714643	      7.20756307	    -13.83204634	     -0.19557564	     -5.59521535	     11.45215147	      5.43307520	     -2.61099445	      1.54150239	    -19.14167257	      5.15623946	     -4.93975737	     -8.47727205	      0.46133196
